<svg width="644" height="211" viewBox="0 0 644 211" fill="none" xmlns="http://www.w3.org/2000/svg">
<path d="M238.53 107.02C223.28 107.02 211.64 102.76 203.64 94.29C195.65 85.8 191.66 73.74 191.66 58.13C191.66 50.35 192.91 43.42 195.32 37.33C197.74 31.25 201.11 26.08 205.34 21.87C209.55 17.67 214.63 14.51 220.52 12.31C226.38 10.19 232.75 9.08002 239.61 9.08002C243.58 9.08002 247.19 9.38001 250.43 9.95001C253.69 10.54 256.53 11.21 258.99 11.97C261.4 12.75 263.45 13.55 265.08 14.38C266.73 15.2 267.89 15.79 268.62 16.25L262.5 33.34C259.62 31.78 256.23 30.48 252.4 29.41C248.58 28.33 244.22 27.78 239.33 27.78C236.08 27.78 232.9 28.33 229.77 29.41C226.65 30.48 223.88 32.22 221.52 34.62C219.13 36.98 217.2 40.11 215.76 43.88C214.33 47.72 213.59 52.32 213.59 57.7C213.59 62.07 214.09 66.06 215.01 69.85C215.98 73.59 217.48 76.83 219.61 79.51C221.73 82.25 224.52 84.38 227.94 85.97C231.37 87.55 235.55 88.36 240.43 88.36C243.51 88.36 246.22 88.17 248.69 87.79C251.13 87.43 253.31 87 255.21 86.49C257.09 86.02 258.77 85.44 260.21 84.79C261.67 84.18 262.96 83.61 264.14 83.05L269.96 100C266.98 101.8 262.8 103.42 257.36 104.88C251.94 106.31 245.67 107.02 238.53 107.02Z" fill="#0033A0"/>
<path d="M309.091 31.96C315.091 31.96 320.031 32.65 323.991 34.01C327.971 35.38 331.171 37.29 333.561 39.82C335.951 42.38 337.661 45.45 338.641 49.03C339.621 52.67 340.141 56.68 340.141 61.12V103.1C337.241 103.73 333.221 104.46 328.081 105.33C322.901 106.2 316.69 106.62 309.38 106.62C304.76 106.62 300.571 106.22 296.831 105.39C293.071 104.61 289.841 103.27 287.161 101.4C284.461 99.55 282.381 97.12 280.931 94.16C279.471 91.17 278.771 87.52 278.771 83.18C278.771 79.01 279.561 75.5 281.271 72.61C282.921 69.74 285.18 67.43 287.98 65.69C290.78 63.98 294.011 62.76 297.621 61.99C301.221 61.22 304.97 60.85 308.85 60.85C311.46 60.85 313.79 60.98 315.82 61.18C317.86 61.38 319.481 61.7 320.771 62.07V60.15C320.771 56.72 319.721 53.96 317.661 51.86C315.571 49.82 311.961 48.78 306.801 48.78C303.391 48.78 299.97 49.03 296.63 49.53C293.31 50.03 290.431 50.72 287.971 51.62L285.391 35.38C286.571 35.02 288.031 34.63 289.801 34.24C291.561 33.8 293.471 33.44 295.551 33.12C297.631 32.82 299.83 32.55 302.13 32.33C304.4 32.08 306.741 31.96 309.091 31.96ZM310.741 91.05C312.711 91.05 314.601 91 316.391 90.89C318.211 90.81 319.66 90.71 320.76 90.48V75.2C319.93 75.02 318.721 74.84 317.091 74.64C315.501 74.48 313.98 74.37 312.63 74.37C310.75 74.37 308.95 74.49 307.26 74.73C305.6 74.94 304.141 75.38 302.891 76.02C301.601 76.65 300.621 77.5 299.911 78.59C299.181 79.69 298.811 81.04 298.811 82.65C298.811 85.81 299.88 88.01 302.01 89.22C304.12 90.43 307.041 91.05 310.741 91.05Z" fill="#0033A0"/>
<path d="M424.67 69.49C424.67 75.01 423.99 80.03 422.63 84.56C421.25 89.08 419.29 92.93 416.64 96.2C414.03 99.43 410.79 101.96 406.9 103.78C403.02 105.57 398.55 106.48 393.49 106.48C390.68 106.48 388.08 106.22 385.66 105.69C383.2 105.14 380.85 104.36 378.58 103.38V130.22H358.4V36.34C360.2 35.78 362.28 35.27 364.63 34.77C366.97 34.27 369.44 33.85 372.03 33.49C374.58 33.13 377.22 32.84 379.88 32.61C382.55 32.37 385.09 32.29 387.51 32.29C393.41 32.29 398.65 33.14 403.24 34.9C407.86 36.66 411.73 39.15 414.91 42.37C418.08 45.55 420.48 49.47 422.13 54.09C423.82 58.66 424.67 63.82 424.67 69.49ZM404.07 70.05C404.07 63.83 402.67 58.84 399.86 55.08C397.08 51.35 392.9 49.46 387.43 49.46C385.6 49.46 383.93 49.53 382.39 49.66C380.86 49.82 379.59 49.96 378.59 50.13V86.58C379.85 87.42 381.5 88.08 383.53 88.63C385.6 89.16 387.64 89.42 389.73 89.42C399.29 89.41 404.07 82.98 404.07 70.05Z" fill="#0033A0"/>
<path d="M462.33 13.3C462.33 17 461.11 19.91 458.74 22.03C456.34 24.16 453.53 25.2 450.25 25.2C447.01 25.2 444.21 24.16 441.79 22.03C439.39 19.91 438.2 17 438.2 13.3C438.2 9.59998 439.39 6.65998 441.79 4.53998C444.21 2.41998 447.01 1.34998 450.25 1.34998C453.54 1.34998 456.34 2.41998 458.74 4.53998C461.11 6.64998 462.33 9.58998 462.33 13.3ZM460.43 105.13H440.25V33.87H460.43V105.13Z" fill="#0033A0"/>
<path d="M478.7 16.12L498.89 12.86V33.87H523.13V50.67H498.89V75.74C498.89 79.95 499.66 83.36 501.12 85.9C502.61 88.42 505.62 89.71 510.13 89.71C512.31 89.71 514.53 89.49 516.85 89.1C519.14 88.69 521.24 88.12 523.13 87.42L525.98 103.11C523.53 104.08 520.84 104.96 517.84 105.69C514.87 106.42 511.2 106.77 506.87 106.77C501.36 106.77 496.81 106.02 493.18 104.51C489.58 103.02 486.66 100.93 484.51 98.29C482.36 95.62 480.83 92.39 479.97 88.62C479.14 84.79 478.69 80.6 478.69 76.02V16.12H478.7Z" fill="#0033A0"/>
<path d="M562.42 31.96C568.41 31.96 573.36 32.65 577.3 34.01C581.3 35.38 584.48 37.29 586.87 39.82C589.27 42.38 590.98 45.45 591.93 49.03C592.92 52.67 593.45 56.68 593.45 61.12V103.1C590.58 103.73 586.55 104.46 581.36 105.33C576.26 106.2 569.98 106.62 562.7 106.62C558.11 106.62 553.9 106.22 550.14 105.39C546.4 104.61 543.17 103.27 540.48 101.4C537.76 99.55 535.71 97.12 534.26 94.16C532.79 91.17 532.08 87.52 532.08 83.18C532.08 79.01 532.91 75.5 534.56 72.61C536.26 69.74 538.47 67.43 541.27 65.69C544.07 63.98 547.29 62.76 550.9 61.99C554.5 61.22 558.26 60.85 562.12 60.85C564.78 60.85 567.1 60.98 569.11 61.18C571.16 61.38 572.81 61.7 574.08 62.07V60.15C574.08 56.72 573.03 53.96 570.96 51.86C568.88 49.82 565.26 48.78 560.12 48.78C556.68 48.78 553.3 49.03 549.96 49.53C546.61 50.03 543.72 50.72 541.28 51.62L538.72 35.38C539.89 35.02 541.35 34.63 543.1 34.24C544.89 33.8 546.79 33.44 548.88 33.12C550.97 32.82 553.14 32.55 555.47 32.33C557.76 32.08 560.09 31.96 562.42 31.96ZM564.05 91.05C566.05 91.05 567.92 91 569.74 90.89C571.56 90.81 572.98 90.71 574.09 90.48V75.2C573.29 75.02 572.06 74.84 570.43 74.64C568.79 74.48 567.33 74.37 565.94 74.37C564.05 74.37 562.26 74.49 560.6 74.73C558.92 74.94 557.44 75.38 556.18 76.02C554.92 76.65 553.93 77.5 553.23 78.59C552.49 79.69 552.16 81.04 552.16 82.65C552.16 85.81 553.18 88.01 555.34 89.22C557.45 90.43 560.37 91.05 564.05 91.05Z" fill="#0033A0"/>
<path d="M640.201 106.48C634.311 106.42 629.541 105.76 625.901 104.61C622.231 103.42 619.371 101.76 617.231 99.61C615.101 97.51 613.661 94.96 612.911 91.91C612.141 88.88 611.771 85.49 611.771 81.7V3.24L631.94 0V77.61C631.94 79.44 632.071 81.03 632.331 82.5C632.591 83.94 633.141 85.2 633.891 86.15C634.661 87.16 635.751 87.99 637.231 88.62C638.641 89.23 640.591 89.65 643.031 89.84L640.201 106.48Z" fill="#0033A0"/>
<path d="M50.29 76.32H17.17L4.07 107.02H0L31.36 32.96H33.78C34.73 32.96 35.52 33.18 36.15 33.62C36.77 34.06 37.23 34.72 37.53 35.6L67.68 107.01H63.28L50.29 76.32ZM48.86 72.8L33.67 36.93L18.49 72.8H48.86Z" fill="#0033A0"/>
<path d="M114.22 32.97V36.71H84.0704V68.07H112.13V71.59H84.0704V107.02H80.1104V32.97H114.22Z" fill="#0033A0"/>
<path d="M128.3 32.97H148.44C152.47 32.97 156.07 33.91 159.22 35.78C162.37 37.65 164.81 40.16 166.54 43.32C168.26 46.48 169.12 49.85 169.12 53.44C169.12 57.03 168.26 60.39 166.54 63.51C164.81 66.63 162.38 69.14 159.22 71.05C156.06 72.96 152.47 73.91 148.44 73.91H132.26V107.03H128.3V32.97ZM156.97 67.9C159.57 66.32 161.57 64.23 162.97 61.63C164.36 59.03 165.06 56.26 165.06 53.32C165.06 50.46 164.36 47.73 162.97 45.12C161.57 42.52 159.58 40.43 156.97 38.85C154.36 37.27 151.41 36.48 148.11 36.48H132.26V70.26H148.11C151.41 70.27 154.36 69.48 156.97 67.9Z" fill="#0033A0"/>
<path fill-rule="evenodd" clip-rule="evenodd" d="M526.87 169.93L526.88 188.54C526.89 194.97 520.47 198.12 513.94 198.12C507.19 198.12 501.42 194.97 501.42 188.54V163.13C504.23 163.13 507.41 164.05 507.42 169.16L507.47 187.08C507.48 190.57 510.1 192.32 514.12 192.32C517.93 192.32 520.83 190.57 520.83 187.08L520.81 163.13C524.99 163.13 526.87 164.91 526.87 169.93ZM547.63 163.13C540.14 163.13 535.01 167.46 535.01 176.33V197.66H541.04V176.13C541.04 171.55 543.5 168.81 548.15 168.81H549.93C555.21 168.81 556.08 166.08 556.08 163.13H547.63ZM573.41 163.13H586.77V168.04V197.66C582.98 197.66 581.07 196.58 580.62 193.06C580.62 193.06 577.97 198.33 570.38 198.33C561.17 198.33 555.71 191.01 556.02 180.55C556.34 169.04 563.88 163.14 571.9 163.14L573.41 163.13ZM580.28 168.68H573.32C572.95 168.7 572.56 168.73 572.14 168.73C566.89 168.73 562.91 172.36 562.66 180.64C562.43 189.25 566.23 192.81 571.56 192.81C577.51 192.81 580.27 188.27 580.27 183.49V168.68H580.28ZM487.14 178.61L479.77 176.58C477.74 176.02 475.88 175.13 475.88 172.66C475.88 170.07 477.45 168.82 480.73 168.82H487.29C490.2 168.82 493.64 167.86 493.64 163.14L481.3 163.15C473.7 163.18 469.35 167 469.35 172.51C469.35 177.64 472.61 180.51 478.41 182.05L484.83 183.75C487.49 184.46 488.42 186.12 488.42 187.84C488.42 190.41 486.8 191.98 482.8 192L470.49 192.1V197.68H482.98C490.61 197.68 494.96 193.6 494.96 188.23C494.96 182.82 492.83 180.14 487.14 178.61Z" fill="#0033A0"/>
<path fill-rule="evenodd" clip-rule="evenodd" d="M610.879 204.59C607.349 205.81 603.529 206.84 599.379 207.51C599.289 207.52 599.219 207.58 599.219 207.67C599.219 207.72 599.219 207.76 599.259 207.8C599.969 208.35 600.829 208.67 601.909 208.8C603.239 208.95 604.859 208.78 606.709 208.3C608.349 207.88 609.929 207.15 611.719 206.3C613.409 205.49 615.029 204.55 616.409 203.57C617.809 202.56 618.889 201.6 619.529 200.72C619.559 200.6 619.509 200.55 619.449 200.54C617.309 202 614.389 203.4 610.879 204.59ZM619.119 198.54C619.169 198.4 619.119 198.35 619.059 198.33C615.659 199.67 608.239 200.97 603.609 201.64C599.609 202.22 596.189 202.31 594.269 202.43L593.409 202.49C593.299 202.52 593.229 202.58 593.229 202.66C593.209 202.73 593.259 202.78 593.309 202.83C593.649 203.22 594.779 204.29 597.019 204.6C599.609 204.97 603.449 204.34 608.249 202.95C612.249 201.83 616.859 199.89 619.119 198.54ZM618.609 204.47C615.709 207.3 611.439 208.88 610.019 209.32C609.939 209.33 609.889 209.4 609.879 209.46C609.879 209.54 609.929 209.62 609.979 209.65C610.209 209.75 611.939 210.69 615.189 209.07C617.029 208.14 617.989 206.63 618.809 204.62C618.849 204.51 618.789 204.46 618.729 204.44C618.689 204.42 618.649 204.45 618.609 204.47ZM602.199 162.5C603.059 163.43 604.159 164.09 605.509 164.51L605.619 164.55C606.019 164.65 628.579 170.69 634.559 172.34C637.169 173.06 639.249 173.63 640.199 173.92C640.309 173.92 640.369 173.88 640.379 173.8C640.379 173.77 640.359 173.72 640.299 173.7C636.519 172.16 613.269 163.12 604.499 159.72L600.809 158.28C600.679 158.25 600.629 158.27 600.589 158.3C600.539 158.35 600.529 158.41 600.529 158.44C600.569 158.76 600.749 160.43 601.499 161.61C601.719 161.93 601.949 162.22 602.199 162.5ZM603.229 153.59C603.669 154.16 604.109 154.53 604.919 155.02C605.209 155.18 605.469 155.38 605.789 155.53L607.869 156.6C609.069 157.19 626.479 165.41 629.019 166.67C632.039 168.18 635.039 169.62 636.369 170.28C636.489 170.3 636.549 170.26 636.519 170.12C633.259 168.07 620.819 160.14 611.939 154.6L605.519 150.7L604.379 149.98L602.189 148.66C602.079 148.61 602.019 148.62 601.989 148.66C601.909 148.68 601.889 148.74 601.889 148.78C601.859 149.08 601.829 150.72 602.339 151.98C602.559 152.54 602.849 153.12 603.229 153.59ZM642.929 176.11C639.919 175.54 603.469 168.92 603.469 168.92C603.379 168.91 603.309 168.95 603.259 169C603.219 169.06 603.239 169.14 603.259 169.21C603.829 171.1 605.259 173.01 607.709 173.76C607.989 173.85 608.239 173.88 608.499 173.91C608.499 173.91 639.439 176.07 642.879 176.32C642.959 176.32 643.029 176.29 643.029 176.23C643.039 176.18 642.979 176.11 642.929 176.11ZM635.279 178.22C632.079 178.22 628.099 178.22 624.399 178.2C619.429 178.19 611.519 178.22 611.519 178.22C611.479 178.22 611.419 178.24 611.379 178.29C611.339 178.35 611.339 178.4 611.379 178.44C611.499 178.78 611.939 179.63 612.439 180.16C613.419 181.19 614.509 181.74 615.619 181.87C615.749 181.88 615.879 181.88 616.019 181.88C616.159 181.88 616.279 181.87 616.439 181.84C616.599 181.82 640.109 178.61 641.399 178.42C641.449 178.4 641.499 178.35 641.499 178.32C641.499 178.25 641.449 178.19 641.379 178.19C640.299 178.22 638.079 178.22 635.279 178.22ZM639.619 180.59C638.149 181.01 632.619 182.42 627.719 183.62C623.479 184.7 618.719 185.98 618.719 185.98C618.229 186.09 618.409 186.31 618.459 186.37C618.569 186.57 618.869 186.99 619.169 187.54C619.919 188.82 620.949 188.64 621.899 188.32C622.069 188.28 638.969 181.3 639.749 180.78C639.859 180.73 639.789 180.66 639.779 180.63C639.759 180.58 639.689 180.59 639.619 180.59ZM632.069 192.31C629.819 194.17 626.409 197.11 622.869 200.09C622.539 200.36 622.399 200.84 622.249 201.46C622.029 202.47 621.509 203.77 621.509 203.77C621.429 204.06 621.549 204.19 621.839 203.9C624.559 200.99 630.609 194.36 632.229 192.48C632.269 192.36 632.229 192.29 632.169 192.28L632.069 192.31ZM628.259 189.57C626.229 190.79 623.689 192.2 622.369 193.01C622.229 193.11 622.079 193.11 622.159 193.52C622.159 193.52 622.229 193.9 622.249 194.36C622.389 196.32 623.189 196.11 624.359 195.22L624.499 195.1C628.579 191.77 636.139 185.46 637.799 184.08C637.829 183.95 637.799 183.89 637.719 183.88C636.109 184.86 631.869 187.42 628.259 189.57Z" fill="#00AEC7"/>
<path d="M238.09 197.02C236.67 196.26 235.58 195.26 234.82 194C234.06 192.74 233.68 191.38 233.68 189.91V173.35H237.09V189.2C237.09 190.2 237.34 191.13 237.85 191.99C238.36 192.86 239.08 193.55 240 194.07C240.92 194.59 241.95 194.85 243.09 194.85C244.2 194.85 245.23 194.6 246.16 194.1C247.1 193.6 247.83 192.92 248.38 192.06C248.93 191.2 249.2 190.25 249.2 189.23V173.35H252.65V189.84C252.65 191.29 252.23 192.65 251.41 193.93C250.58 195.21 249.43 196.24 247.96 197C246.49 197.77 244.86 198.15 243.06 198.15C241.17 198.16 239.51 197.78 238.09 197.02Z" fill="#00AEC7"/>
<path d="M260.87 182.35C261.63 181.59 262.52 180.99 263.55 180.55C264.58 180.11 265.67 179.89 266.8 179.89C268.27 179.89 269.54 180.2 270.6 180.83C271.67 181.46 272.48 182.29 273.05 183.33C273.62 184.37 273.9 185.5 273.9 186.71V197.66H270.63V187.64C270.63 186.76 270.46 185.97 270.12 185.24C269.78 184.52 269.25 183.94 268.56 183.52C267.86 183.09 267.03 182.88 266.05 182.88C265.13 182.88 264.25 183.06 263.44 183.43C262.62 183.8 261.97 184.29 261.47 184.9V197.66H258.17V180.25C259.66 180.25 260.56 180.95 260.87 182.35Z" fill="#00AEC7"/>
<path d="M281.07 197.54C280.16 197.12 279.43 196.54 278.9 195.78C278.37 195.02 278.1 194.15 278.1 193.15C278.1 192.16 278.35 191.27 278.85 190.49C279.35 189.71 280.09 189.08 281.07 188.61C282.05 188.14 283.23 187.9 284.61 187.9L290.05 187.87V186.77C290.05 185.59 289.68 184.6 288.95 183.8C288.21 183.01 287.18 182.61 285.86 182.61C284.67 182.61 283.69 182.91 282.91 183.52C282.13 184.13 281.67 184.98 281.52 186.1H278.61C278.71 184.82 279.1 183.71 279.78 182.78C280.47 181.84 281.36 181.13 282.45 180.65C283.54 180.16 284.74 179.92 286.04 179.92C287.56 179.92 288.87 180.22 289.97 180.83C291.07 181.44 291.91 182.25 292.48 183.28C293.05 184.31 293.33 185.47 293.33 186.74V197.97C292.62 198 292.03 197.83 291.57 197.47C291.11 197.11 290.81 196.43 290.66 195.41C289.85 196.29 288.91 196.97 287.83 197.45C286.75 197.94 285.52 198.18 284.15 198.18C283.01 198.16 281.98 197.95 281.07 197.54ZM282.29 194.94C282.98 195.45 283.87 195.7 284.96 195.7C287.09 195.7 288.78 194.98 290.04 193.53V190.05H285.28C283.98 190.05 282.98 190.32 282.29 190.87C281.6 191.41 281.26 192.11 281.26 192.97C281.26 193.78 281.61 194.43 282.29 194.94Z" fill="#00AEC7"/>
<path d="M319.529 196.77C318.059 197.67 316.399 198.12 314.559 198.12C312.779 198.12 311.199 197.73 309.819 196.95C308.439 196.17 307.359 195.08 306.589 193.7C305.819 192.31 305.439 190.75 305.439 188.99C305.439 187.33 305.829 185.81 306.609 184.42C307.389 183.03 308.459 181.93 309.829 181.12C311.189 180.3 312.709 179.89 314.399 179.89C315.939 179.89 317.359 180.23 318.649 180.92C319.939 181.61 320.979 182.61 321.759 183.92C322.539 185.23 322.929 186.78 322.929 188.56C322.929 189.08 322.909 189.47 322.859 189.73H308.749V189.87C308.839 191.01 309.169 192 309.729 192.85C310.289 193.7 311.009 194.36 311.899 194.82C312.789 195.28 313.779 195.51 314.869 195.51C316.029 195.51 317.119 195.2 318.119 194.57C319.129 193.94 319.809 193.07 320.159 191.96L322.649 193.2C322.029 194.69 320.999 195.87 319.529 196.77ZM318.839 184.76C318.349 184 317.719 183.42 316.939 183.02C316.159 182.62 315.269 182.41 314.269 182.41C313.319 182.41 312.459 182.62 311.679 183.03C310.899 183.45 310.249 184.04 309.739 184.81C309.229 185.58 308.899 186.46 308.759 187.46H319.669C319.609 186.42 319.329 185.52 318.839 184.76Z" fill="#00AEC7"/>
<path d="M328.88 180.71C329.33 181.02 329.64 181.56 329.8 182.35C330.56 181.59 331.45 180.99 332.48 180.55C333.51 180.11 334.6 179.89 335.73 179.89C337.08 179.89 338.26 180.17 339.28 180.73C340.3 181.29 341.1 182.04 341.7 182.99C342.65 181.95 343.67 181.17 344.76 180.66C345.85 180.15 346.99 179.9 348.17 179.9C349.64 179.9 350.91 180.21 351.97 180.84C353.04 181.47 353.85 182.3 354.42 183.34C354.99 184.38 355.27 185.51 355.27 186.72V197.67H352V187.65C352 186.3 351.6 185.17 350.81 184.26C350.02 183.35 348.9 182.89 347.45 182.89C346.57 182.89 345.72 183.09 344.89 183.48C344.06 183.87 343.3 184.47 342.62 185.27C342.76 185.72 342.83 186.21 342.83 186.73V197.68H339.56V187.66C339.56 186.78 339.39 185.99 339.05 185.26C338.71 184.54 338.18 183.96 337.49 183.54C336.79 183.11 335.96 182.9 334.98 182.9C334.06 182.9 333.18 183.08 332.37 183.45C331.55 183.82 330.9 184.31 330.4 184.92V197.68H327.1V180.27C327.84 180.25 328.43 180.4 328.88 180.71Z" fill="#00AEC7"/>
<path d="M362.26 180.71C362.7 181.02 363.01 181.56 363.2 182.35C363.91 181.59 364.79 181 365.83 180.57C366.87 180.14 368 179.93 369.21 179.93C370.63 179.93 372 180.25 373.31 180.89C374.63 181.53 375.7 182.52 376.54 183.86C377.38 185.2 377.8 186.85 377.8 188.82C377.8 190.55 377.4 192.13 376.61 193.56C375.82 194.99 374.74 196.12 373.38 196.94C372.02 197.76 370.52 198.16 368.88 198.16C367.86 198.16 366.92 198.01 366.05 197.72C365.19 197.43 364.45 196.99 363.83 196.42V204.27H360.52V180.25C361.25 180.25 361.83 180.4 362.26 180.71ZM365.78 194.82C366.55 195.15 367.44 195.32 368.46 195.32C369.53 195.32 370.52 195.05 371.43 194.52C372.34 193.99 373.08 193.24 373.63 192.27C374.19 191.3 374.46 190.2 374.46 188.97C374.46 187.6 374.17 186.45 373.59 185.52C373.01 184.6 372.27 183.91 371.37 183.46C370.47 183.01 369.52 182.79 368.53 182.79C367.51 182.79 366.59 182.98 365.78 183.38C364.96 183.77 364.32 184.3 363.84 184.96V193.38C364.37 194 365.01 194.49 365.78 194.82Z" fill="#00AEC7"/>
<path d="M389.65 183.38C387.78 183.38 386.33 183.97 385.31 185.16V197.67H382.01V180.26C382.74 180.26 383.34 180.42 383.81 180.74C384.27 181.06 384.58 181.63 384.75 182.46C385.48 181.72 386.34 181.17 387.31 180.79C388.28 180.41 389.38 180.22 390.61 180.22V183.45C390.32 183.4 390 183.38 389.65 183.38Z" fill="#00AEC7"/>
<path d="M406.42 196.77C404.95 197.67 403.29 198.12 401.45 198.12C399.67 198.12 398.09 197.73 396.71 196.95C395.32 196.17 394.25 195.08 393.48 193.7C392.71 192.31 392.33 190.75 392.33 188.99C392.33 187.33 392.72 185.81 393.5 184.42C394.28 183.03 395.35 181.93 396.72 181.12C398.08 180.3 399.6 179.89 401.29 179.89C402.83 179.89 404.25 180.23 405.54 180.92C406.83 181.61 407.87 182.61 408.65 183.92C409.43 185.23 409.82 186.78 409.82 188.56C409.82 189.08 409.8 189.47 409.75 189.73H395.64V189.87C395.73 191.01 396.06 192 396.62 192.85C397.18 193.7 397.9 194.36 398.79 194.82C399.68 195.28 400.67 195.51 401.76 195.51C402.92 195.51 404.01 195.2 405.01 194.57C406.02 193.94 406.7 193.07 407.05 191.96L409.54 193.2C408.92 194.69 407.88 195.87 406.42 196.77ZM405.72 184.76C405.23 184 404.6 183.42 403.82 183.02C403.04 182.62 402.15 182.41 401.15 182.41C400.2 182.41 399.34 182.62 398.56 183.03C397.78 183.45 397.13 184.04 396.62 184.81C396.11 185.58 395.78 186.46 395.64 187.46H406.55C406.49 186.42 406.21 185.52 405.72 184.76Z" fill="#00AEC7"/>
<path d="M416.599 194.93C417.469 195.38 418.419 195.61 419.459 195.61C420.599 195.61 421.539 195.37 422.289 194.88C423.039 194.39 423.409 193.75 423.409 192.94C423.409 192.25 423.159 191.69 422.649 191.25C422.139 190.81 421.429 190.53 420.499 190.41L418.049 190.09C416.529 189.92 415.349 189.4 414.499 188.53C413.649 187.65 413.219 186.59 413.219 185.33C413.219 184.31 413.519 183.39 414.129 182.56C414.729 181.73 415.559 181.08 416.599 180.61C417.639 180.13 418.789 179.9 420.049 179.9C421.329 179.9 422.529 180.17 423.659 180.72C424.789 181.27 425.599 182 426.089 182.92L424.379 185.05C423.979 184.2 423.369 183.55 422.569 183.11C421.759 182.67 420.859 182.45 419.869 182.45C418.759 182.45 417.859 182.69 417.169 183.18C416.479 183.67 416.139 184.3 416.139 185.08C416.139 185.72 416.379 186.23 416.849 186.62C417.319 187.01 418.009 187.27 418.909 187.38L421.109 187.66C422.769 187.87 424.049 188.42 424.969 189.3C425.879 190.18 426.339 191.29 426.339 192.64C426.339 193.71 426.029 194.65 425.409 195.48C424.789 196.31 423.959 196.96 422.899 197.43C421.849 197.9 420.659 198.14 419.329 198.14C417.959 198.14 416.689 197.88 415.549 197.36C414.399 196.84 413.519 196.12 412.899 195.19L414.499 192.95C415.029 193.82 415.729 194.48 416.599 194.93Z" fill="#00AEC7"/>
<path d="M432.38 197.54C431.47 197.12 430.74 196.54 430.21 195.78C429.68 195.02 429.41 194.15 429.41 193.15C429.41 192.16 429.66 191.27 430.16 190.49C430.66 189.71 431.4 189.08 432.38 188.61C433.36 188.14 434.54 187.9 435.92 187.9L441.36 187.87V186.77C441.36 185.59 440.99 184.6 440.26 183.8C439.52 183.01 438.49 182.61 437.17 182.61C435.98 182.61 435 182.91 434.22 183.52C433.44 184.13 432.98 184.98 432.83 186.1H429.92C430.02 184.82 430.41 183.71 431.09 182.78C431.78 181.84 432.67 181.13 433.76 180.65C434.85 180.16 436.05 179.92 437.35 179.92C438.87 179.92 440.18 180.22 441.28 180.83C442.38 181.44 443.22 182.25 443.79 183.28C444.36 184.31 444.64 185.47 444.64 186.74V197.97C443.93 198 443.34 197.83 442.88 197.47C442.42 197.11 442.12 196.43 441.97 195.41C441.16 196.29 440.22 196.97 439.14 197.45C438.06 197.94 436.83 198.18 435.46 198.18C434.31 198.16 433.29 197.95 432.38 197.54ZM433.6 194.94C434.29 195.45 435.18 195.7 436.27 195.7C438.4 195.7 440.09 194.98 441.35 193.53V190.05H436.59C435.29 190.05 434.29 190.32 433.6 190.87C432.91 191.41 432.57 192.11 432.57 192.97C432.57 193.78 432.91 194.43 433.6 194.94Z" fill="#00AEC7"/>
</svg>
