<svg xmlns="http://www.w3.org/2000/svg" id="Capa_1" data-name="Capa 1" viewBox="0 0 300 110"><defs><style> .cls-1 { fill: #d3f6ff; } .cls-2 { fill: #49d3de; } .cls-3 { fill: #21798d; } .cls-4 { fill: #2899ac; } </style></defs><path class="cls-4" d="M59.71,54c-2.83-7.91-7.2-13.6-10.75-18.68-.04-.06-1.3-1.75-1.36-1.79-3.13-1.9-4.68-1.57-6.81-1.67-7.54-.36-21.33,1.91-22.99,1.63-.22-.04-2.08,4.41-2.17,4.61-2.67,6.05-4.63,10.45-9.35,16.44-1.61,2.04,1.31,2.44,1.75,2.38,2.04-.31,1.45,1.69,2.59,1.55,9.04-1.09,4.01-2.51,12.83-2.8,9.94-.33,13.68,8.22,24.23,8.84,3.27.19,13.9-5.32,12.04-10.5"></path><path class="cls-2" d="M20.08,39.33c9.1-.54,12.88-6.75,20.36-5.75,4.71.63,7.73,3.18,10.9,5.13,0,0-9.26-13.63-15.58-20.92-5.53-6.37-8.86-10.02-11.73-12.2-1.02-.77-2.43-.32-2.43.96,0,7.67-1.53,19.63-6.09,31.49-.11.29,2.5,1.41,4.56,1.29"></path><path class="cls-3" d="M47.27,56.21c-6.46,1.24-11.79-.42-15.42-2.04-5.01-2.23-8.11-3.51-11.9-3.97-4.17-.51-8.03.19-10.35,1.41-3.59,1.89-4.93,4.86-4.13,6.47,1.18,2.36,3.65,2.05,7.42,2.1,6.69.08,10.72,1.19,17.59,7.66,7.95,7.48,18.5,10.07,25.77,3.29,10.12-9.45.22-24.19.22-24.19-1.2,5.2-6.26,8.71-9.2,9.28"></path><path class="cls-1" d="M60.44,81.26c-1.09-.33-2.76.77-4.75,2.58-5.64,5.1-8.95,6.59-14.87,6.93-4.76.27-9.78-1.49-12.69-4-2.22-1.91-1.41-4.53,4.1-1.89,4.58,2.19,8.26,1.95,10.93,1.01,5.3-1.87,6.33-6.51,3.77-6.26-5.87.58-9.94.4-16.15-3.87-3.82-2.63-8.16-6.07-14.86-6.95-4.01-.53-9.76.14-12.92,3.08-4.4,4.11-2.89,9.8-2.08,12.54,5.35,18.18,24.59,24.64,40.4,20.47,6.45-1.71,13.54-6.31,18.59-15.11,3.09-5.39,2.81-7.82.54-8.52"></path><path class="cls-1" d="M96.58,65.59l5.01,13.9h-1.76l-1.53-4.26h-5.45l-1.48,4.26h-1.65l4.85-13.9h2.01ZM95.57,67.08h-.02l-2.3,6.79h4.66l-2.34-6.79Z"></path><path class="cls-1" d="M102.91,78.78l.56-1.19c.61.4,1.69.94,2.9.94,1.09,0,2.07-.56,2.07-1.78s-.96-1.59-2.15-1.9c-1.5-.44-3.16-.9-3.16-2.97s1.67-3.07,3.49-3.07c1.48,0,2.74.65,3.47,1.4l-.88,1c-.69-.65-1.59-1.15-2.63-1.15-.92,0-1.9.44-1.9,1.67,0,1.15.98,1.48,2.19,1.86,1.5.46,3.16.92,3.16,3.01s-1.5,3.18-3.64,3.18c-1.69,0-3.05-.63-3.49-1"></path><path class="cls-1" d="M112.06,74.22c0-4.33,2.57-5.41,4.64-5.41,1.44,0,4.28.46,4.28,5.18,0,4.08-2.01,5.79-4.64,5.79s-4.28-1.8-4.28-5.56M119.33,74.35c0-2.51-.73-4.24-2.76-4.24s-2.86,1.65-2.86,3.91c0,2.07.4,4.51,2.78,4.51,1.96,0,2.84-1.9,2.84-4.18"></path><path class="cls-1" d="M123.28,74.29c0-4.24,2.57-5.47,4.56-5.47,1.21,0,2.65.38,3.62,1.84l-1.09.86c-.73-.94-1.55-1.36-2.51-1.36-1.69,0-2.95,1.25-2.95,4.07,0,2.44.88,4.22,3.11,4.22.86,0,1.73-.27,2.57-.94l.69,1.11c-.67.61-1.92,1.19-3.39,1.19-3.01,0-4.62-2.05-4.62-5.52"></path><path class="cls-1" d="M133.41,66.14c0-.61.46-1.09,1.09-1.09s1.09.46,1.09,1.09-.48,1.11-1.11,1.11-1.07-.46-1.07-1.11M135.31,79.49h-1.65v-10.39h1.65v10.39Z"></path><path class="cls-1" d="M138.13,74.75c0-3.7,1.76-5.93,5.22-5.93.65,0,2.11.17,3.45.67v8.19l.17,1.82h-1.46l-.15-1.23-.06-.02c-.56.84-1.53,1.57-3.09,1.57-3.09,0-4.07-2.3-4.07-5.06M145.2,76.19v-5.72c-.38-.19-1.21-.38-2.09-.38-2.51,0-3.36,2.05-3.36,4.72,0,1.8.54,3.72,2.74,3.72,1.78,0,2.72-1.17,2.72-2.34"></path><path class="cls-1" d="M149.62,74.29c0-4.24,2.57-5.47,4.56-5.47,1.21,0,2.65.38,3.62,1.84l-1.09.86c-.73-.94-1.55-1.36-2.51-1.36-1.69,0-2.95,1.25-2.95,4.07,0,2.44.88,4.22,3.11,4.22.86,0,1.73-.27,2.57-.94l.69,1.11c-.67.61-1.92,1.19-3.38,1.19-3.01,0-4.62-2.05-4.62-5.52"></path><path class="cls-1" d="M159.76,66.14c0-.61.46-1.09,1.09-1.09s1.09.46,1.09,1.09-.48,1.11-1.11,1.11-1.07-.46-1.07-1.11M161.66,79.49h-1.65v-10.39h1.65v10.39Z"></path><path class="cls-1" d="M164.5,74.22c0-4.33,2.57-5.41,4.64-5.41,1.44,0,4.28.46,4.28,5.18,0,4.08-2.01,5.79-4.64,5.79s-4.28-1.8-4.28-5.56M171.77,74.35c0-2.51-.73-4.24-2.76-4.24s-2.86,1.65-2.86,3.91c0,2.07.4,4.51,2.78,4.51,1.96,0,2.84-1.9,2.84-4.18M170.12,63.4c.56.13,1.23.35,1.23.92,0,.25-.19.56-.46.88-.5.56-1.4,1.44-2.49,2.49l-.58-.5,2.3-3.78Z"></path><path class="cls-1" d="M176.11,69.1h1.42l.19,1.5c.79-1.17,2.01-1.8,3.36-1.8,2.15,0,3.32,1.21,3.32,3.59v7.08h-1.63v-6.58c0-1.55-.33-2.8-2.09-2.8-1.61,0-2.82,1.32-2.82,2.57v6.81h-1.63v-8.82l-.13-1.57Z"></path><path class="cls-1" d="M193.04,72.55c0-5.39,3.28-7.21,6.1-7.21,1.51,0,3.3.52,4.56,2.32l-1.19.88c-.9-1.07-1.96-1.78-3.41-1.78-2.67,0-4.35,2.15-4.35,5.68s1.38,5.89,4.37,5.89c1.3,0,2.4-.52,3.55-1.55l.9,1.11c-1.27,1.21-2.82,1.84-4.53,1.84-3.68,0-6-2.32-6-7.19"></path><path class="cls-1" d="M207.75,64.97v5.41c.79-1.11,2.03-1.57,3.2-1.57,2.17,0,3.32,1.21,3.32,3.59v7.08h-1.63v-6.64c0-1.46-.31-2.74-2.13-2.74-1.53,0-2.76,1.32-2.76,2.57v6.81h-1.63v-14.52h1.63Z"></path><path class="cls-1" d="M217.32,66.14c0-.61.46-1.09,1.09-1.09s1.09.46,1.09,1.09-.48,1.11-1.11,1.11-1.07-.46-1.07-1.11M219.22,79.49h-1.65v-10.39h1.65v10.39Z"></path><path class="cls-1" d="M222.58,76.42v-11.45h1.65v11.37c0,1.61.29,2.15,1.32,2.15.48,0,.98-.17,1.38-.36l.38,1.15c-.44.29-1.27.5-2.13.5-2.44,0-2.59-1.61-2.59-3.36"></path><path class="cls-1" d="M228.66,74.45c0-3.09,1.73-5.64,4.85-5.64,1.94,0,3.05,1.04,3.05,2.59,0,3.41-4.33,3.68-6.27,3.62.08,1.69.9,3.47,3.09,3.47,1.42,0,2.3-.67,2.67-.96l.63,1.11c-.52.44-1.71,1.15-3.39,1.15-3.26,0-4.64-2.22-4.64-5.33M235.02,71.59c0-.98-.65-1.57-1.59-1.57-2.24,0-3.09,2.11-3.16,3.74,1.13.08,4.74-.06,4.74-2.17"></path><path class="cls-1" d="M239.11,69.1h1.42l.19,1.5c.79-1.17,2.01-1.8,3.36-1.8,2.15,0,3.32,1.21,3.32,3.59v7.08h-1.63v-6.58c0-1.55-.33-2.8-2.09-2.8-1.61,0-2.82,1.32-2.82,2.57v6.81h-1.63v-8.82l-.13-1.57Z"></path><path class="cls-1" d="M250.18,74.75c0-3.7,1.76-5.93,5.22-5.93.65,0,2.11.17,3.45.67v8.19l.17,1.82h-1.46l-.15-1.23-.06-.02c-.56.84-1.53,1.57-3.09,1.57-3.09,0-4.07-2.3-4.07-5.06M257.25,76.19v-5.72c-.38-.19-1.21-.38-2.09-.38-2.51,0-3.36,2.05-3.36,4.72,0,1.8.54,3.72,2.74,3.72,1.78,0,2.72-1.17,2.72-2.34"></path><path class="cls-1" d="M266.44,74.6c0-3.51,1.71-5.79,4.89-5.79.84,0,1.48.17,2.15.38v-4.22h1.61v12.64l.17,1.88h-1.46l-.15-1.25-.06-.02c-.84,1.15-1.99,1.59-3.07,1.59-3.05,0-4.07-2.42-4.07-5.2M273.48,76.29v-5.73c-.48-.25-1.25-.5-2.22-.5-2.28,0-3.22,1.88-3.22,4.35,0,2.15.58,4.12,2.72,4.12,1.69,0,2.72-1.19,2.72-2.24"></path><path class="cls-1" d="M278.03,74.45c0-3.09,1.73-5.64,4.85-5.64,1.94,0,3.05,1.04,3.05,2.59,0,3.41-4.33,3.68-6.27,3.62.08,1.69.9,3.47,3.09,3.47,1.42,0,2.3-.67,2.67-.96l.63,1.11c-.52.44-1.71,1.15-3.39,1.15-3.26,0-4.64-2.22-4.64-5.33M284.38,71.59c0-.98-.65-1.57-1.59-1.57-2.24,0-3.09,2.11-3.16,3.74,1.13.08,4.74-.06,4.74-2.17"></path><path class="cls-1" d="M94.16,87.97c3.89,0,6.33,2.15,6.33,6.44,0,5.52-2.95,7.46-6.21,7.46h-4.37v-13.9h4.24ZM98.82,94.8c0-4.24-2.09-5.47-4.79-5.47h-2.47v11.18h2.76c2.76,0,4.49-1.96,4.49-5.7"></path><path class="cls-1" d="M102.44,96.83c0-3.09,1.73-5.64,4.85-5.64,1.94,0,3.05,1.04,3.05,2.59,0,3.41-4.33,3.68-6.27,3.62.08,1.69.9,3.47,3.09,3.47,1.42,0,2.3-.67,2.67-.96l.63,1.11c-.52.44-1.71,1.15-3.39,1.15-3.26,0-4.64-2.22-4.64-5.33M108.79,93.96c0-.98-.65-1.57-1.59-1.57-2.24,0-3.09,2.11-3.16,3.74,1.13.08,4.74-.06,4.74-2.17"></path><path class="cls-1" d="M111.59,101.15l.56-1.19c.61.4,1.69.94,2.9.94,1.09,0,2.07-.56,2.07-1.78s-.96-1.59-2.15-1.9c-1.5-.44-3.16-.9-3.16-2.97s1.67-3.07,3.49-3.07c1.48,0,2.74.65,3.47,1.4l-.88,1c-.69-.65-1.59-1.15-2.63-1.15-.92,0-1.9.44-1.9,1.67,0,1.15.98,1.48,2.19,1.86,1.5.46,3.16.92,3.16,3.01s-1.5,3.18-3.64,3.18c-1.69,0-3.05-.63-3.49-1"></path><path class="cls-1" d="M120.22,97.12c0-3.7,1.76-5.93,5.22-5.93.65,0,2.11.17,3.45.67v8.19l.17,1.82h-1.46l-.15-1.23-.06-.02c-.56.84-1.53,1.57-3.09,1.57-3.09,0-4.07-2.3-4.07-5.06M127.28,98.56v-5.72c-.38-.19-1.21-.38-2.09-.38-2.51,0-3.36,2.05-3.36,4.72,0,1.8.54,3.72,2.74,3.72,1.78,0,2.72-1.17,2.72-2.34"></path><path class="cls-1" d="M131.73,98.79v-11.45h1.65v11.37c0,1.61.29,2.15,1.32,2.15.48,0,.98-.17,1.38-.36l.38,1.15c-.44.29-1.27.5-2.13.5-2.44,0-2.59-1.61-2.59-3.36"></path><path class="cls-1" d="M137.29,97.12c0-3.7,1.76-5.93,5.22-5.93.65,0,2.11.17,3.45.67v8.19l.17,1.82h-1.46l-.15-1.23-.06-.02c-.56.84-1.53,1.57-3.09,1.57-3.09,0-4.07-2.3-4.07-5.06M144.35,98.56v-5.72c-.38-.19-1.21-.38-2.09-.38-2.51,0-3.36,2.05-3.36,4.72,0,1.8.54,3.72,2.74,3.72,1.78,0,2.72-1.17,2.72-2.34"></path><path class="cls-1" d="M148.27,96.66c0-4.24,2.57-5.47,4.56-5.47,1.21,0,2.65.38,3.62,1.84l-1.09.86c-.73-.94-1.55-1.36-2.51-1.36-1.69,0-2.95,1.25-2.95,4.07,0,2.44.88,4.22,3.11,4.22.86,0,1.73-.27,2.57-.94l.69,1.11c-.67.61-1.92,1.19-3.39,1.19-3.01,0-4.62-2.05-4.62-5.52"></path><path class="cls-1" d="M157.91,88.51c0-.61.46-1.09,1.09-1.09s1.09.46,1.09,1.09-.48,1.11-1.11,1.11-1.07-.46-1.07-1.11M159.81,101.86h-1.65v-10.39h1.65v10.39Z"></path><path class="cls-1" d="M162.15,96.6c0-4.33,2.57-5.41,4.64-5.41,1.44,0,4.28.46,4.28,5.18,0,4.08-2.01,5.79-4.64,5.79s-4.28-1.8-4.28-5.56M169.42,96.72c0-2.51-.73-4.24-2.76-4.24s-2.86,1.65-2.86,3.91c0,2.07.4,4.51,2.78,4.51,1.96,0,2.84-1.9,2.84-4.18M167.77,85.77c.56.13,1.23.35,1.23.92,0,.25-.19.56-.46.88-.5.56-1.4,1.44-2.49,2.49l-.58-.5,2.3-3.78Z"></path><path class="cls-1" d="M173.26,91.48h1.42l.19,1.5c.79-1.17,2.01-1.8,3.36-1.8,2.15,0,3.32,1.21,3.32,3.59v7.08h-1.63v-6.58c0-1.55-.33-2.8-2.09-2.8-1.61,0-2.82,1.32-2.82,2.57v6.81h-1.63v-8.82l-.13-1.57Z"></path><path class="cls-1" d="M189.25,104.79c0-1.69,1.27-2.91,2.3-3.57-1.67-.19-2.92-1-2.92-3.43v-6.31h1.63v5.95c0,1.53.15,2.72,2.36,2.72,1.34,0,2.53-1,2.53-2.45v-6.23h1.61v9.95c0,.92-.1,2.15-.33,2.9-.48,1.94-1.8,3.09-4.01,3.09s-3.16-1.02-3.16-2.63M195.14,102.32v-1.9c-2.51,1.02-4.39,2.17-4.39,4.14,0,1.07.67,1.61,1.8,1.61,1.9,0,2.59-1.59,2.59-3.85"></path><path class="cls-1" d="M207.84,87.97c2.93,0,4.72,1.02,4.72,3.74,0,2.38-1.44,3.45-2.65,3.82.75.23.94.54,1.38,1.46l2.24,4.87h-1.76l-2.05-4.39c-.36-.75-.75-1.34-1.63-1.34h-3.01v5.73h-1.65v-13.9h4.41ZM210.85,91.85c0-2.34-1.42-2.53-3.95-2.53h-1.82v5.52h2.72c1.88,0,3.05-1.07,3.05-2.99"></path><path class="cls-1" d="M214.84,96.83c0-3.09,1.73-5.64,4.85-5.64,1.94,0,3.05,1.04,3.05,2.59,0,3.41-4.33,3.68-6.27,3.62.08,1.69.9,3.47,3.09,3.47,1.42,0,2.3-.67,2.67-.96l.63,1.11c-.52.44-1.71,1.15-3.39,1.15-3.26,0-4.64-2.22-4.64-5.33M221.19,93.96c0-.98-.65-1.57-1.59-1.57-2.24,0-3.09,2.11-3.16,3.74,1.13.08,4.74-.06,4.74-2.17"></path><path class="cls-1" d="M224.89,98.58v-7.1h1.63v6.65c0,1.55.33,2.74,2.17,2.74,1.44,0,2.72-1.28,2.72-2.49v-6.9h1.63v8.86l.15,1.52h-1.44l-.19-1.42h-.02c-.77,1.19-2.03,1.71-3.28,1.71-2.24,0-3.36-1.17-3.36-3.57M230.01,85.77c.56.13,1.23.35,1.23.92,0,.25-.19.56-.46.88-.5.56-1.4,1.44-2.49,2.49l-.58-.5,2.3-3.78Z"></path><path class="cls-1" d="M235.07,101.15l.56-1.19c.61.4,1.69.94,2.9.94,1.09,0,2.07-.56,2.07-1.78s-.96-1.59-2.15-1.9c-1.5-.44-3.16-.9-3.16-2.97s1.67-3.07,3.49-3.07c1.48,0,2.74.65,3.47,1.4l-.88,1c-.69-.65-1.59-1.15-2.63-1.15-.92,0-1.9.44-1.9,1.67,0,1.15.98,1.48,2.19,1.86,1.5.46,3.16.92,3.16,3.01s-1.5,3.18-3.64,3.18c-1.69,0-3.05-.63-3.49-1"></path><path class="cls-1" d="M243.72,96.6c0-4.33,2.57-5.41,4.64-5.41,1.44,0,4.28.46,4.28,5.18,0,4.08-2.01,5.79-4.64,5.79s-4.28-1.8-4.28-5.56M250.99,96.72c0-2.51-.73-4.24-2.76-4.24s-2.86,1.65-2.86,3.91c0,2.07.4,4.51,2.78,4.51,1.96,0,2.84-1.9,2.84-4.18"></path><path class="cls-1" d="M263.2,87.97l5.01,13.9h-1.76l-1.53-4.26h-5.45l-1.48,4.26h-1.65l4.85-13.9h2.01ZM262.2,89.45h-.02l-2.3,6.79h4.66l-2.34-6.79Z"></path><path class="cls-1" d="M269.36,100.9c0-.69.5-1.19,1.19-1.19.77,0,1.23.46,1.23,1.17s-.44,1.25-1.17,1.25c-.79,0-1.25-.48-1.25-1.23M284.21,100.98c0-.69.5-1.19,1.19-1.19.77,0,1.23.46,1.23,1.17s-.44,1.25-1.17,1.25c-.79,0-1.25-.48-1.25-1.23"></path><path class="cls-1" d="M272.5,94.95c0-5.41,3.13-7.23,5.91-7.23,1.44,0,3.3.46,4.66,2.28l-1.19.92c-.92-1.09-2.01-1.76-3.49-1.76-2.61,0-4.18,2.13-4.18,5.64,0,3.76,1.32,5.93,4.35,5.93,1.13,0,2.32-.36,2.88-.73v-4.33h-3.37v-1.34h4.95v6.5c-1.15.77-2.8,1.27-4.62,1.27-3.66,0-5.91-2.32-5.91-7.17"></path><path class="cls-1" d="M106.38,16.13l12.03,34.03h-6.6l-3.07-9.01h-11.92l-3.02,9.01h-6.14l11.56-34.03h7.16ZM102.8,21.86h-.15l-4.61,14.53h9.47l-4.71-14.53Z"></path><path class="cls-1" d="M125.42,33.33c0-13.36,8.08-17.81,15.35-17.81,4.3,0,8.75,1.64,11.77,6.29l-4.4,3.22c-2.15-2.71-4.5-4.25-7.57-4.25-5.27,0-8.75,4.4-8.75,12.13s2.87,12.69,9.11,12.69c2.87,0,5.42-1.28,7.98-3.58l3.22,4.09c-3.38,3.12-7.11,4.66-11.57,4.66-9.26,0-15.15-5.83-15.15-17.45"></path><path class="cls-1" d="M176.9,16.13l12.03,34.03h-6.6l-3.07-9.01h-11.92l-3.02,9.01h-6.14l11.56-34.03h7.16ZM173.32,21.86h-.15l-4.61,14.53h9.47l-4.71-14.53Z"></path><path class="cls-1" d="M208.32,16.13c9.83,0,15.97,5.12,15.97,15.81,0,13.41-7.47,18.22-15.71,18.22h-11.36V16.13h11.1ZM217.99,32.87c0-9.21-4.4-11.77-9.98-11.77h-4.55v24.15h5.22c5.78,0,9.31-4.2,9.31-12.38"></path><polygon class="cls-1" points="254.78 16.13 254.78 21.56 240.51 21.56 240.51 30.1 252.74 30.1 252.74 35.48 240.51 35.48 240.51 44.74 255.14 44.74 255.14 50.16 234.26 50.16 234.26 16.13 254.78 16.13"></polygon><path class="cls-1" d="M262.31,47.5l2.3-5.17c1.94,1.28,5.94,3.02,9.47,3.02,2.76,0,5.47-.87,5.47-4.71,0-3.22-2.97-4.2-6.5-5.32-4.5-1.33-9.77-3.22-9.77-9.77s4.81-10.03,11.51-10.03c4.76,0,9.06,2.1,11.77,4.81l-3.33,4.14c-2.71-2.2-5.63-3.63-8.39-3.63-2.35,0-5.02.97-5.02,4.14s2.92,4.15,6.76,5.37c4.66,1.48,9.57,3.43,9.57,10.03s-4.76,10.39-12.18,10.39c-4.96,0-9.93-2-11.67-3.27"></path><path class="cls-1" d="M288.72,5.71h4.03c.93,0,1.63.2,2.09.6.47.4.7.96.7,1.68,0,.4-.06.74-.18,1-.12.26-.26.48-.41.64-.16.16-.31.28-.47.35-.15.07-.27.12-.34.14v.02c.13.02.26.06.41.12.15.06.28.16.41.3.13.14.23.32.31.54.08.22.12.5.12.83,0,.5.04.95.11,1.35.08.41.19.7.35.87h-1.58c-.11-.18-.18-.38-.19-.6-.02-.22-.03-.43-.03-.64,0-.39-.02-.72-.07-1-.05-.28-.13-.51-.26-.7-.13-.19-.3-.32-.51-.41s-.5-.13-.83-.13h-2.18v3.48h-1.48V5.71ZM290.2,9.55h2.42c.47,0,.83-.11,1.08-.34.24-.22.37-.56.37-1.01,0-.27-.04-.49-.12-.66-.08-.17-.19-.3-.33-.4-.14-.09-.3-.16-.47-.19-.18-.03-.36-.05-.55-.05h-2.4v2.64Z"></path><path class="cls-1" d="M292.15,17.61c-4.14,0-7.51-3.37-7.51-7.51s3.37-7.51,7.51-7.51,7.51,3.37,7.51,7.51-3.37,7.51-7.51,7.51M292.15,3.7c-3.52,0-6.39,2.87-6.39,6.39s2.87,6.39,6.39,6.39,6.39-2.87,6.39-6.39-2.87-6.39-6.39-6.39"></path></svg>